<svg xmlns="http://www.w3.org/2000/svg" width="500" height="500" style="width:100%;height:100%;transform:translate3d(0,0,0);content-visibility:visible" viewBox="0 0 500 500"><defs><clipPath id="a"><path d="M0 0h500v500H0z"/></clipPath></defs><g clip-path="url(#a)"><g fill="#F1E1D9" style="display:block"><path d="M445.041 250c0 107.718-87.323 195.041-195.041 195.041S54.959 357.718 54.959 250 142.282 54.959 250 54.959 445.041 142.282 445.041 250z"/><path d="M95.755 170.276c-107.718 0-195.043-87.325-195.043-195.044 0-70.625 37.539-132.481 93.751-166.709-82.262 22.897-142.631 98.35-142.631 187.91 0 107.719 87.325 195.044 195.044 195.044 37.094 0 71.768-10.358 101.292-28.335-16.679 4.643-34.254 7.134-52.413 7.134z" opacity=".5" style="mix-blend-mode:multiply" transform="translate(203.125 253.567) scale(.99999)"/></g><path fill="none" stroke="#E8392F" stroke-width="7" d="M195.043 0c0 107.719-87.324 195.043-195.043 195.043-107.719 0-195.043-87.324-195.043-195.043 0-107.719 87.324-195.043 195.043-195.043 107.719 0 195.043 87.324 195.043 195.043z" style="display:block" transform="translate(250 250) scale(.99999)"/><path fill="none" stroke="#E8392F" stroke-linecap="round" stroke-linejoin="round" stroke-width="3.5" d="M-16.278-36.544A39.825 39.825 0 0 1 0-40s0 0 0 0c12.69 0 24.008 5.923 31.338 15.152" style="display:block" transform="rotate(180 125 125) scale(3.14159)"/><path fill="none" stroke="#E8392F" stroke-linecap="round" stroke-linejoin="round" stroke-width="3.5" d="M-16.438 11.713V23.5h11.75" style="display:block" transform="rotate(90 -76.969 298.5) scale(3.14159)"/><path fill="none" stroke="#E8392F" stroke-linecap="round" stroke-linejoin="round" stroke-width="3.5" d="M-16.278-36.544A39.825 39.825 0 0 1 0-40s0 0 0 0c12.69 0 24.008 5.923 31.338 15.152" style="display:block" transform="translate(250 250) scale(3.14159)"/><path fill="none" stroke="#E8392F" stroke-linecap="round" stroke-linejoin="round" stroke-width="3.5" d="M-16.438 11.713V23.5h11.75" style="display:block" transform="rotate(-90 201.5 -76.97) scale(3.14159)"/><path fill="none" stroke="#15C62D" stroke-linecap="round" stroke-linejoin="round" stroke-width="3.5" d="M-16.278-36.544A39.825 39.825 0 0 1 0-40s0 0 0 0c12.69 0 24.008 5.923 31.338 15.152" style="display:block" transform="rotate(90 0 250) scale(3.09168)"/><path fill="none" stroke="#15C62D" stroke-linecap="round" stroke-linejoin="round" stroke-width="3.5" d="M-16.438 11.713V23.5h11.75" style="display:block" transform="translate(373.476 278.017) scale(3.09168)"/><path fill="none" stroke="#15C62D" stroke-linecap="round" stroke-linejoin="round" stroke-width="3.5" d="M-16.278-36.544A39.825 39.825 0 0 1 0-40s0 0 0 0c12.69 0 24.008 5.923 31.338 15.152" style="display:block" transform="rotate(-90 250 0) scale(3.09168)"/><path fill="none" stroke="#15C62D" stroke-linecap="round" stroke-linejoin="round" stroke-width="3.5" d="M-16.438 11.713V23.5h11.75" style="display:block" transform="rotate(179.98 63.262 110.992) scale(3.09168)"/><g class="com" style="display:none"><path/><path/><path/><path/><path/><path/><path/><path/><path/><path/><path/><path/></g></g></svg>